<svg xmlns="http://www.w3.org/2000/svg" version="1.1" xmlns:xlink="http://www.w3.org/1999/xlink" xmlns:svgjs="http://svgjs.dev/svgjs" width="2000" height="1250" viewBox="0 0 2000 1250"><g transform="matrix(1,0,0,1,0,0)"><svg viewBox="0 0 512 320" data-background-color="#3e373d" preserveAspectRatio="xMidYMid meet" height="1250" width="2000" xmlns="http://www.w3.org/2000/svg" xmlns:xlink="http://www.w3.org/1999/xlink"><g id="tight-bounds" transform="matrix(1,0,0,1,0,0)"><svg viewBox="0 0 512 320" height="320" width="512"><g><svg></svg></g><g><svg viewBox="0 0 512 320" height="320" width="512"><g><path d="M96 160c0-88.366 71.634-160 160-160 88.366 0 160 71.634 160 160 0 88.366-71.634 160-160 160-88.366 0-160-71.634-160-160z" fill="#ffffff" fill-rule="nonzero" stroke="none" stroke-width="1" stroke-linecap="butt" stroke-linejoin="miter" stroke-miterlimit="10" stroke-dasharray="" stroke-dashoffset="0" font-family="none" font-weight="none" font-size="none" text-anchor="none" style="mix-blend-mode: normal" data-fill-palette-color="tertiary"></path></g><g transform="matrix(1,0,0,1,169.37209302325581,80)"><svg viewBox="0 0 173.25581395348837 160" height="160" width="173.25581395348837"><g><svg viewBox="0 0 173.25581395348837 160" height="160" width="173.25581395348837"><g><svg viewBox="0 0 173.25581395348837 160" height="160" width="173.25581395348837"><g id="textblocktransform"><svg viewBox="0 0 173.25581395348837 160" height="160" width="173.25581395348837" id="textblock"><g><svg viewBox="0 0 173.25581395348837 160" height="160" width="173.25581395348837"><g transform="matrix(1,0,0,1,0,0)"><svg width="173.25581395348837" viewBox="3.7 -34.4 37.25 34.4" height="160" data-palette-color="#3e373d"><path d="M14.75-19.7L27-34.4 40.7-34.4 28.35-20.25 40.95 0 27.9 0 20.75-12.6 14.75-7.7 14.75 0 3.7 0 3.7-34.4 14.75-34.4 14.75-19.7Z" opacity="1" transform="matrix(1,0,0,1,0,0)" fill="#000000" class="wordmark-text-0" data-fill-palette-color="quaternary" id="text-0"></path></svg></g></svg></g></svg></g></svg></g><g></g></svg></g></svg></g></svg></g><defs></defs></svg><rect width="512" height="320" fill="none" stroke="none" visibility="hidden"></rect></g></svg></g></svg>